<svg width="32" height="32" viewBox="0 0 32 32" fill="none" xmlns="http://www.w3.org/2000/svg">
  <circle cx="16" cy="16" r="16" fill="#1A237E" opacity="0.1"/>
  <path d="M22 10C22 14.4183 18.4183 18 14 18C9.58172 18 6 14.4183 6 10C6 5.58172 9.58172 2 14 2C18.4183 2 22 5.58172 22 10Z" fill="#3F51B5"/>
  <path d="M22 10C22 7.79086 20.2091 6 18 6C15.7909 6 14 7.79086 14 10C14 12.2091 15.7909 14 18 14C20.2091 14 22 12.2091 22 10Z" fill="#1A237E"/>
  <path d="M21.5 16L26 30L16 25L21.5 16Z" fill="#7C4DFF"/>
</svg>